{"asset":{"version":"2.0","generator":"Blockbench 5.1.3 glTF exporter"},"scenes":[{"nodes":[6],"name":"blockbench_export"}],"scene":0,"nodes":[{"name":"Focus","mesh":0},{"translation":[0.375,0.265625,0],"name":"Focus","children":[0]},{"name":"Shoot","mesh":1},{"translation":[-0.375,0.328125,0],"name":"Shoot","children":[2]},{"name":"Body","mesh":2},{"rotation":[0.7071067811865475,0,0,0.7071067811865476],"translation":[0.15625,0.25,-0.0625],"name":"Lens","mesh":3},{"rotation":[0,-1,0,6.123233995736766e-17],"name":"cam","children":[1,3,4,5]}],"bufferViews":[{"buffer":0,"byteOffset":0,"byteLength":720,"target":34962,"byteStride":12},{"buffer":0,"byteOffset":720,"byteLength":720,"target":34962,"byteStride":12},{"buffer":0,"byteOffset":1440,"byteLength":480,"target":34962,"byteStride":8},{"buffer":0,"byteOffset":1920,"byteLength":144,"target":34963},{"buffer":0,"byteOffset":2064,"byteLength":720,"target":34962,"byteStride":12},{"buffer":0,"byteOffset":2784,"byteLength":720,"target":34962,"byteStride":12},{"buffer":0,"byteOffset":3504,"byteLength":480,"target":34962,"byteStride":8},{"buffer":0,"byteOffset":3984,"byteLength":144,"target":34963},{"buffer":0,"byteOffset":4128,"byteLength":888,"target":34962,"byteStride":12},{"buffer":0,"byteOffset":5016,"byteLength":888,"target":34962,"byteStride":12},{"buffer":0,"byteOffset":5904,"byteLength":592,"target":34962,"byteStride":8},{"buffer":0,"byteOffset":6496,"byteLength":216,"target":34963},{"buffer":0,"byteOffset":6712,"byteLength":1440,"target":34962,"byteStride":12},{"buffer":0,"byteOffset":8152,"byteLength":1440,"target":34962,"byteStride":12},{"buffer":0,"byteOffset":9592,"byteLength":960,"target":34962,"byteStride":8},{"buffer":0,"byteOffset":10552,"byteLength":288,"target":34963},{"buffer":0,"byteOffset":10840,"byteLength":32},{"buffer":0,"byteOffset":10872,"byteLength":96},{"buffer":0,"byteOffset":10968,"byteLength":32},{"buffer":0,"byteOffset":11000,"byteLength":96}],"buffers":[{"byteLength":11096,"uri":"data:application/octet-stream;base64,"}],"accessors":[{"bufferView":0,"componentType":5126,"count":60,"max":[0.07216878235340118,0.265625,0.0625],"min":[-0.07216878235340118,0.234375,-0.0625],"type":"VEC3"},{"bufferView":1,"componentType":5126,"count":60,"max":[0.8660253882408142,1,1],"min":[-0.8660253882408142,-1,-1],"type":"VEC3"},{"bufferView":2,"componentType":5126,"count":60,"max":[0.4480840563774109,0.21449029445648193],"min":[0.3621465563774109,0.19254028797149658],"type":"VEC2"},{"bufferView":3,"componentType":5123,"count":72,"max":[59],"min":[0],"type":"SCALAR"},{"bufferView":4,"componentType":5126,"count":60,"max":[0.07216878235340118,0.265625,0.0625],"min":[-0.07216878235340118,0.234375,-0.0625],"type":"VEC3"},{"bufferView":5,"componentType":5126,"count":60,"max":[0.8660253882408142,1,1],"min":[-0.8660253882408142,-1,-1],"type":"VEC3"},{"bufferView":6,"componentType":5126,"count":60,"max":[0.4441778063774109,0.18324029445648193],"min":[0.3621465563774109,0.16129028797149658],"type":"VEC2"},{"bufferView":7,"componentType":5123,"count":72,"max":[59],"min":[0],"type":"SCALAR"},{"bufferView":8,"componentType":5126,"count":74,"max":[0.5,0.5625,0.25],"min":[-0.5,0,-0.125],"type":"VEC3"},{"bufferView":9,"componentType":5126,"count":74,"max":[1,1,1],"min":[-1,-1,-1],"type":"VEC3"},{"bufferView":10,"componentType":5126,"count":74,"max":[0.34375,0.5],"min":[0,0],"type":"VEC2"},{"bufferView":11,"componentType":5123,"count":108,"max":[73],"min":[0],"type":"SCALAR"},{"bufferView":12,"componentType":5126,"count":120,"max":[0.1875,0.375,0.1875],"min":[-0.1875,0.125,-0.1875],"type":"VEC3"},{"bufferView":13,"componentType":5126,"count":120,"max":[1,1,1],"min":[-1,-1,-1],"type":"VEC3"},{"bufferView":14,"componentType":5126,"count":120,"max":[0.7516546249389648,0.6110296249389648],"min":[0.34375,0],"type":"VEC2"},{"bufferView":15,"componentType":5123,"count":144,"max":[119],"min":[0],"type":"SCALAR"},{"bufferView":16,"componentType":5126,"count":8,"max":[0.375],"min":[0],"type":"SCALAR"},{"bufferView":17,"componentType":5126,"count":8,"max":[0.375,0.265625,0],"min":[0.375,0.24375000596046448,0],"type":"VEC3"},{"bufferView":18,"componentType":5126,"count":8,"max":[0.375],"min":[0],"type":"SCALAR"},{"bufferView":19,"componentType":5126,"count":8,"max":[-0.375,0.328125,0],"min":[-0.375,0.3062500059604645,0],"type":"VEC3"}],"materials":[{"pbrMetallicRoughness":{"metallicFactor":0,"roughnessFactor":1,"baseColorTexture":{"index":0}},"alphaMode":"MASK","alphaCutoff":0.05,"doubleSided":true}],"textures":[{"sampler":0,"source":0,"name":"camera_1.png"}],"samplers":[{"magFilter":9728,"minFilter":9728,"wrapS":33071,"wrapT":33071}],"images":[{"mimeType":"image/png","uri":"data:image/png;base64,"}],"meshes":[{"primitives":[{"mode":4,"attributes":{"POSITION":0,"NORMAL":1,"TEXCOORD_0":2},"indices":3,"material":0}]},{"primitives":[{"mode":4,"attributes":{"POSITION":4,"NORMAL":5,"TEXCOORD_0":6},"indices":7,"material":0}]},{"primitives":[{"mode":4,"attributes":{"POSITION":8,"NORMAL":9,"TEXCOORD_0":10},"indices":11,"material":0}]},{"primitives":[{"mode":4,"attributes":{"POSITION":12,"NORMAL":13,"TEXCOORD_0":14},"indices":15,"material":0}]}],"animations":[{"name":"focus","samplers":[{"input":16,"output":17,"interpolation":"LINEAR"}],"channels":[{"sampler":0,"target":{"node":1,"path":"translation"}}]},{"name":"shoot","samplers":[{"input":18,"output":19,"interpolation":"LINEAR"}],"channels":[{"sampler":0,"target":{"node":3,"path":"translation"}}]}]}